<?xml version="1.0" encoding="utf-8" ?><svg xmlns="http://www.w3.org/2000/svg" xmlns:xlink="http://www.w3.org/1999/xlink" width="1024" height="1024" viewBox="0 0 1024 1024" xmlns:rdf="http://www.w3.org/1999/02/22-rdf-syntax-ns#" xmlns:cc="http://creativecommons.org/ns#" xmlns:dc="http://purl.org/dc/elements/1.1/"><metadata><rdf:RDF><cc:Work><dc:format>image/svg+xml</dc:format><dc:type rdf:resource="http://purl.org/dc/dcmitype/StillImage"/><cc:license rdf:resource="http://creativecommons.org/publicdomain/zero/1.0/"/></cc:Work><cc:License rdf:about="http://creativecommons.org/publicdomain/zero/1.0/"><cc:permits rdf:resource="http://creativecommons.org/ns#Reproduction"/><cc:permits rdf:resource="http://creativecommons.org/ns#Distribution"/><cc:permits rdf:resource="http://creativecommons.org/ns#DerivativeWorks"/></cc:License></rdf:RDF></metadata><path d="M428.643 622.588C398.21 622.619 363.407 632.077 337.861 611.466C325.54 601.77 320.479 587.539 318.112 572.347C310.243 521.835 308.392 449.565 340.776 406.787C369.426 368.943 432.024 371.614 436.79 427.713C436.427 427.449 436.06 427.191 435.69 426.939C418.331 415.107 389.929 399.518 374.632 424.583C360.298 448.069 379.98 465.7 399.904 475.222C407.246 478.73 417.63 485.591 425.171 490.135C427.069 493.107 424.811 506.959 423.877 510.767C424.384 517.691 414.98 553.075 415.556 554.355C420.974 555.071 433.432 553.756 439.219 553.324C450.93 552.546 462.637 551.701 474.338 550.789C480.317 540.494 487.244 530.142 493.541 520.036C502.98 518.577 514.522 518.424 524.285 517.582C520.809 526.133 512.245 538.912 507.883 548.007C519.678 548.151 530.43 545.354 542.528 546.498C568.878 548.989 579.715 565.514 591.887 586.535C600.306 601.073 609.181 616.156 617.795 630.784C631.641 654.108 645.269 677.561 658.677 701.14C663.685 710.059 669.426 719.096 673.699 728.303C676.144 733.571 676.623 738.505 676.038 744.27C675.275 751.865 671.518 758.843 665.597 763.66C648.764 777.348 626.541 768.211 617.73 750.686C614.464 744.191 608.922 736.097 604.955 729.943L560.662 660.895C553.773 650.023 541.953 630.042 534.354 620.264L533.781 619.534C512.428 619.391 482.134 619.463 461.001 621.098L422.019 682.309C411.796 698.261 396.888 717.15 390.862 734.413C387.436 744.701 388.573 755.762 387.637 766.19C384.02 806.468 362.266 848.234 322.719 863.099C310.34 867.752 278.787 876.477 266.731 871.017C262.302 869.014 258.881 865.291 257.258 860.709C254.003 851.303 260.525 833.124 263.709 823.671C274.235 792.417 284.071 767.003 312.536 747.432C318.349 743.435 323.714 739.509 330.185 736.295C343.072 729.894 354.084 726.232 364.486 715.761C382.184 697.947 394.707 674.897 408.588 653.992C413.619 646.415 424.751 630.334 428.3 623.28L428.643 622.588Z"/><path d="M910.763 509.671C926.561 507.57 932.065 523.51 925.153 535.454C917.791 548.177 908.55 559.52 899.863 571.393C885.022 591.675 869.48 611.565 851.303 629.006C810.759 667.455 760.572 692.94 705.787 703.688C685.192 709.628 676.727 679.12 697.389 674.406C711.167 671.262 723.316 668.737 736.971 664.391C784.279 649.554 825.94 620.648 856.399 581.528C866.661 568.292 872.087 561.597 881.197 547.143C863.428 550.42 843.39 555.871 825.549 559.942C794.397 566.853 763.147 573.311 731.807 579.313C706.389 583.885 680.9 588.052 655.349 591.812C646.829 593.022 637.74 594.406 629.124 594.896C626.726 594.774 624.231 593.787 622.337 592.432C613.611 586.69 614.398 570.672 624.552 567.141C631.315 564.789 641.216 564.044 648.523 563.018C657.664 561.73 666.786 560.314 675.887 558.769C708.642 553.541 741.268 547.531 773.736 540.743C798.088 535.539 822.407 530.184 846.692 524.679C864.107 520.907 881.251 516.265 898.592 512.19C902.734 511.217 906.539 510.241 910.763 509.671Z"/><path d="M618.327 328.565C626.534 315.201 639.186 296.612 643.462 281.939C645.18 270.4 644.604 258.05 646.094 246.385C651.999 200.145 680.298 161.628 727.418 152.02C737.399 149.985 757.271 144.19 766.511 149.855C778.298 157.081 773.927 173.113 771.049 183.851C765.511 205.869 757.941 227.946 745.166 246.858C733.563 263.867 713.611 277.264 695.48 286.704C687.967 290.615 677.649 294.899 671.415 300.632C658.366 312.633 647.667 331.465 638.269 346.737C633.334 339.679 629.709 337.421 621.786 334.73C619.274 333.871 617.83 333.699 615.254 333.304C616.204 331.541 617.185 330.201 618.327 328.565Z"/><path d="M305.378 721.202C297.573 721.062 283.289 719.215 275.373 718.315C259.055 716.476 242.747 714.543 226.451 712.514C208.7 710.286 192.257 708.301 174.488 705.449C159.578 703.563 144.559 701.311 129.876 698.117C123.101 696.643 117.458 690.401 117.348 683.35C117.25 677.033 120.24 672.545 124.517 668.241C163.992 628.515 215.293 605.756 270.251 597.487C273.694 596.968 305.511 591.368 306.298 593.975C309.853 605.745 311.825 609.569 319.875 618.878C278.504 621.897 224.196 637.357 187.484 657.142C178.296 662.094 170.21 668.078 161.906 674.301C166.679 675.492 174.601 676.122 179.773 676.797C192.825 678.541 205.893 680.173 218.974 681.693C263.371 686.937 307.541 692.28 352.257 694.552C354.576 695.075 355.348 695.032 357.67 695.284C337.945 702.631 323.398 710.729 305.378 721.202Z"/><path d="M426.822 249.711C429.124 249.177 433.11 249.583 435.419 249.703C444.702 250.147 452.886 252.516 460.702 257.604C491.283 277.511 494.408 316.66 474.357 345.389C465.955 357.426 451.409 377.304 436.622 380.428C425.899 381.806 410.544 376.103 402.515 368.978C387.565 355.713 378.447 333.305 376.211 313.791C374.382 297.832 379.262 281.289 389.602 269.021C398.884 257.813 412.313 250.846 426.822 249.711Z"/><path d="M608.791 342.129C618.206 341.408 632.655 347.866 633.861 358.343C634.607 364.821 633.923 370.925 630.43 376.592C624.4 386.375 612.018 387.957 605.384 397.456C598.146 407.662 591.617 419.105 585.387 429.95C582.796 434.46 579.434 440.96 576.433 444.936C569.166 446.302 555.763 447.323 547.986 448.167C549.656 440.052 559.626 420.576 563.449 412.561C549.618 419.617 522.047 430.805 507.375 434.801C490.35 439.522 467.344 437.558 450.415 432.795C449.705 430.605 449.13 427.997 448.687 425.711C446.219 413.002 441.615 401.779 436.335 390.048C462.444 390.494 493.535 398.043 518.292 389.211C543.889 380.079 583.757 346.12 608.791 342.129Z"/><path d="M394.894 421.582C408.484 420.313 422.206 429.659 433.938 435.646C444.615 441.094 455.01 447.193 465.444 453.147C472.525 457.187 480.078 462.367 488.011 464.486C493.97 465.82 507.004 463.93 513.341 463.145C527.674 461.461 541.987 459.608 556.277 457.586C566.905 456.028 575.735 454.411 587.275 453.481C606.926 451.897 612.645 470.733 605.532 485.884C603.548 490.109 596.55 493.047 591.826 494.108C586.183 495.729 574.748 497.199 568.647 498.1C554.727 500.168 540.789 502.112 526.835 503.931C515.067 505.506 503.28 507.183 491.497 508.638C489.239 508.691 485.758 509.324 483.541 508.997C473.164 507.468 462.721 500.046 453.853 495.22C440.352 487.874 427.679 480.396 414.62 472.432C405.73 467.011 396.459 462.469 388.189 456.213C380.9 450.594 377.528 439.928 381.845 431.451C384.781 425.685 389.009 423.424 394.894 421.582Z"/><path d="M543.58 695.232C566.013 694.421 567.408 722.92 550.155 726.006C543.706 727.159 526.374 726.834 519.015 726.905C492.294 727.21 465.57 727.058 438.855 726.45C432.477 726.061 425.614 726.033 419.183 725.905C422.343 719.848 434.257 705.482 438.894 699.336C439.842 698.078 441.673 696.614 443.362 696.487C454.463 695.647 466.733 696.124 477.902 696.101C499.798 696.1 521.692 695.81 543.58 695.232Z"/><path fill="#110F11" fill-opacity="0.57647061" d="M352.257 694.552C353.132 694.565 358.268 694.368 358.594 694.784C358.462 695.076 357.926 695.191 357.67 695.284C355.348 695.032 354.576 695.075 352.257 694.552Z"/></svg>